<?xml version="1.0" encoding="UTF-8" standalone="no"?>
<!DOCTYPE svg PUBLIC "-//W3C//DTD SVG 1.1//EN" "http://www.w3.org/Graphics/SVG/1.1/DTD/svg11.dtd">
<svg width="100%" height="100%" viewBox="0 0 180 180" version="1.1" xmlns="http://www.w3.org/2000/svg" xmlns:xlink="http://www.w3.org/1999/xlink" xml:space="preserve" xmlns:serif="http://www.serif.com/" style="fill-rule:evenodd;clip-rule:evenodd;stroke-linejoin:round;stroke-miterlimit:2;">
    <rect x="0" y="0" width="180" height="180" style="fill:rgb(0,15,63);"/>
    <g transform="matrix(0.032827,0,0,0.032827,7.933379,7.933379)">
        <g transform="matrix(1.366914,-0,0.109177,0.336472,549.247656,1522.505504)">
            <rect x="1390.47" y="1711.288" width="1109.53" height="524.87" style="fill:white;"/>
        </g>
        <g transform="matrix(0.421565,-1.300283,0.353741,-0.000085,843.263501,4083.104393)">
            <rect x="1390.47" y="1711.288" width="1109.53" height="524.87" style="fill:white;"/>
        </g>
        <g transform="matrix(-1.106259,-0.802898,0.109279,-0.336439,3367.969778,4594.045895)">
            <rect x="1390.47" y="1711.288" width="1109.53" height="524.87" style="fill:white;"/>
        </g>
        <g transform="matrix(-1.105868,0.803437,-0.286096,-0.208043,4634.680205,2351.734332)">
            <rect x="1390.47" y="1711.288" width="1109.53" height="524.87" style="fill:white;"/>
        </g>
        <g transform="matrix(0.422174,1.300086,-0.286302,0.207759,2893.577312,452.997139)">
            <rect x="1390.47" y="1711.288" width="1109.53" height="524.87" style="fill:white;"/>
        </g>
    </g>
</svg>
