<?xml version="1.0" encoding="UTF-8" standalone="no"?>
<!DOCTYPE svg PUBLIC "-//W3C//DTD SVG 1.1//EN" "http://www.w3.org/Graphics/SVG/1.1/DTD/svg11.dtd">
<svg width="100%" height="100%" viewBox="0 0 4000 1000" version="1.1" xmlns="http://www.w3.org/2000/svg" xmlns:xlink="http://www.w3.org/1999/xlink" xml:space="preserve" xmlns:serif="http://www.serif.com/" style="fill-rule:evenodd;clip-rule:evenodd;stroke-linejoin:round;stroke-miterlimit:2;">
    <g transform="matrix(2.868496,0,0,2.868496,-1365.706302,-1462.539046)">
        <g transform="matrix(0.07869,0,-0,0.07869,435.89512,487.445914)">
            <g transform="matrix(1.366914,0,0.109177,0.336472,549.247656,1522.505504)">
                <rect x="1390.47" y="1711.288" width="1109.53" height="524.87" style="fill:white;"/>
            </g>
            <g transform="matrix(0.421565,-1.300283,0.353741,-0.000085,843.263501,4083.104393)">
                <rect x="1390.47" y="1711.288" width="1109.53" height="524.87" style="fill:white;"/>
            </g>
            <g transform="matrix(-1.106259,-0.802898,0.109279,-0.336439,3367.969778,4594.045895)">
                <rect x="1390.47" y="1711.288" width="1109.53" height="524.87" style="fill:white;"/>
            </g>
            <g transform="matrix(-1.105868,0.803437,-0.286096,-0.208043,4634.680205,2351.734332)">
                <rect x="1390.47" y="1711.288" width="1109.53" height="524.87" style="fill:white;"/>
            </g>
            <g transform="matrix(0.422174,1.300086,-0.286302,0.207759,2893.577312,452.997139)">
                <rect x="1390.47" y="1711.288" width="1109.53" height="524.87" style="fill:white;"/>
            </g>
        </g>
        <g transform="matrix(5.454098,0,-0,5.454098,-7345.544146,-2863.82848)">
            <path d="M1535.743,648.72L1535.743,629.32L1534.443,629.32L1534.443,634.12L1522.193,634.12L1522.193,629.32L1520.893,629.32L1520.893,637.42L1497.543,637.42L1497.543,629.32L1496.243,629.32L1496.243,647.72L1522.193,647.72L1522.193,643.22L1534.443,643.22L1534.443,648.72L1535.743,648.72ZM1520.893,646.62L1497.543,646.62L1497.543,638.52L1520.893,638.52L1520.893,646.62ZM1536.743,671.72L1536.743,670.62L1498.043,670.62L1498.043,663.17L1535.743,663.17L1535.743,653.87L1496.743,653.87L1496.743,654.97L1534.443,654.97L1534.443,662.07L1496.743,662.07L1496.743,671.72L1536.743,671.72ZM1534.443,642.12L1522.193,642.12L1522.193,635.22L1534.443,635.22L1534.443,642.12Z" style="fill:white;fill-rule:nonzero;"/>
            <path d="M1572.193,671.22L1572.193,629.32L1570.893,629.32L1570.893,649.17L1547.543,649.17L1547.543,629.32L1546.243,629.32L1546.243,671.22L1572.193,671.22ZM1570.893,670.12L1547.543,670.12L1547.543,650.27L1570.893,650.27L1570.893,670.12ZM1584.743,671.72L1584.743,649.77L1591.043,649.77L1591.043,648.67L1584.743,648.67L1584.743,629.32L1583.443,629.32L1583.443,671.72L1584.743,671.72Z" style="fill:white;fill-rule:nonzero;"/>
            <path d="M1623.193,671.22L1623.193,670.12L1597.543,670.12L1597.543,650.27L1622.193,650.27L1622.193,629.82L1596.243,629.82L1596.243,630.92L1620.893,630.92L1620.893,649.17L1596.243,649.17L1596.243,671.22L1623.193,671.22ZM1634.743,671.72L1634.743,649.77L1641.043,649.77L1641.043,648.67L1634.743,648.67L1634.743,629.32L1633.443,629.32L1633.443,671.72L1634.743,671.72Z" style="fill:white;fill-rule:nonzero;"/>
            <path d="M1644.743,671.22C1661.243,669.72 1672.193,657.52 1672.193,640.12L1672.193,629.82L1645.743,629.82L1645.743,630.92L1670.893,630.92L1670.893,640.12C1670.893,656.82 1660.393,668.62 1644.743,670.12L1644.743,671.22ZM1685.743,671.72L1685.743,629.32L1684.443,629.32L1684.443,671.72L1685.743,671.72Z" style="fill:white;fill-rule:nonzero;"/>
        </g>
    </g>
</svg>
